<?xml version="1.0" encoding="utf-8"?>
<!-- Generator: Adobe Illustrator 22.1.0, SVG Export Plug-In . SVG Version: 6.00 Build 0)  -->
<svg version="1.1" id="Capa_1" xmlns="http://www.w3.org/2000/svg" xmlns:xlink="http://www.w3.org/1999/xlink" x="0px" y="0px"
	 viewBox="0 0 981.2 141.9" style="enable-background:new 0 0 981.2 141.9;" xml:space="preserve">
<style type="text/css">
	.st0{fill:none;}
	.st1{fill:#9F8C52;}
</style>
<rect x="-108.8" y="-283.6" class="st0" width="1224" height="792"/>
<g>
	<path class="st1" d="M221.8,40.4v6.4c-5.7-5-13.2-7.5-21.8-7.5c-21.1,0-36.5,16.3-36.5,38.7c0,22.4,15.3,38.7,36.5,38.7
		c8.7,0,16.1-2.5,21.8-7.4v6.3h16.3V40.4H221.8z M222.4,77.9c0,11.6-6.5,23.4-21,23.4c-14.8,0-21.6-12.1-21.6-23.4
		c0-11.2,6.7-23.4,21.6-23.4C215.9,54.6,222.4,66.3,222.4,77.9z"/>
	<path class="st1" d="M323.7,39.3c-12.1,0-19.6,6.4-23.7,11.5c-5.2-7.2-13.4-11.5-22.2-11.5c-8.4,0-14.2,3.1-18.1,6.4v-5.3h-16.3
		v75.2h16.3V71.2c0-11.4,7.9-16.6,15.7-16.6c8.4,0,14.2,6.8,14.2,16.4v44.5H306V71.2c0-11.4,7.9-16.6,15.7-16.6
		c8.4,0,14.2,6.8,14.2,16.4v44.5h16.3V70.7C352.3,51,337.8,39.3,323.7,39.3z"/>
	<path class="st1" d="M431.8,77.9c0-22.4-15.7-38.7-37.3-38.7c-21.6,0-37.3,16.3-37.3,38.7c0,22.4,16,38.7,38,38.7
		c16.4,0,28.6-8.1,34.3-22.9l1.6-4h-17.4l-0.8,1.6c-2.5,4.6-7.5,10.1-17.5,10.1c-10.5,0-18.4-6.3-21-16.3h57.4V77.9z M374.6,69.4
		c2.8-9.3,10.1-14.9,19.8-14.9c9.7,0,17.1,5.6,19.8,14.9H374.6z"/>
	<path class="st1" d="M475.2,39.3c-10.6,0-17.9,4.8-22.5,10.1v-9h-16.3v75.2h16.3V82.1c0-12.9,7.7-26.5,22-26.5h4.2V39.3H475.2z"/>
	<rect x="483.1" y="40.4" class="st1" width="16.3" height="75.2"/>
	<path class="st1" d="M559.4,89.7c-3,7.4-9.3,11.6-17.3,11.6c-14.5,0-22.1-11.8-22.1-23.4c0-11.6,7.6-23.4,22.1-23.4
		c8,0,14.4,4.2,17.3,11.6l0.7,1.9h17.2l-1.1-3.8c-4.5-15.2-18.5-25-35.5-25c-21.5,0-37,16.3-37,38.7c0,22.4,15.6,38.7,37,38.7
		c17,0,31-9.8,35.5-25l1.1-3.8h-17.2L559.4,89.7z"/>
	<path class="st1" d="M638.2,40.4v6.4c-5.7-5-13.2-7.5-21.8-7.5c-21.1,0-36.5,16.3-36.5,38.7c0,22.4,15.3,38.7,36.5,38.7
		c8.7,0,16.1-2.5,21.8-7.4v6.3h16.3V40.4H638.2z M638.8,77.9c0,11.6-6.5,23.4-21,23.4c-14.8,0-21.6-12.1-21.6-23.4
		c0-11.2,6.7-23.4,21.6-23.4C632.3,54.6,638.8,66.3,638.8,77.9z"/>
	<path class="st1" d="M696.2,39.3c-7.9,0-14.5,2.3-20,7.3v-6.2h-16.3v75.2h16.3V72.7c0-10.3,7.7-18.1,18-18.1
		c9.8,0,16.4,7.2,16.4,18v43h16.3V72.3C726.9,50.6,711.5,39.3,696.2,39.3z"/>
	<path class="st1" d="M810.5,40.4v6.4c-5.7-5-13.2-7.5-21.8-7.5c-21.1,0-36.5,16.3-36.5,38.7c0,22.4,15.3,38.7,36.5,38.7
		c8.7,0,16.1-2.5,21.8-7.4v6.3h16.3V40.4H810.5z M811.1,77.9c0,11.6-6.5,23.4-21,23.4c-14.8,0-21.6-12.1-21.6-23.4
		c0-11.2,6.7-23.4,21.6-23.4C804.6,54.6,811.1,66.3,811.1,77.9z"/>
	<path class="st1" d="M868.5,39.3c-7.9,0-14.5,2.3-20,7.3v-6.2h-16.3v75.2h16.3V72.7c0-10.3,7.7-18.1,18-18.1
		c9.8,0,16.4,7.2,16.4,18v43h16.3V72.3C899.2,50.6,883.8,39.3,868.5,39.3z"/>
	<polygon class="st1" points="898.8,40.4 898.8,55.4 912.9,55.4 912.9,115.5 929.2,115.5 929.2,55.4 945.2,55.4 945.2,40.4 	"/>
	<g>
		<path class="st1" d="M959.8,29v-0.1c1.4-0.4,2.4-1.4,2.4-2.7c0-1.1-0.5-2.1-1.1-2.6c-0.9-0.5-1.8-0.9-4-0.9
			c-1.9,0-3.4,0.1-4.5,0.4v11.6h2.7V30h1.3c1.5,0,2.2,0.6,2.4,1.8c0.4,1.3,0.6,2.4,0.9,2.8h2.9c-0.3-0.4-0.5-1.1-0.9-2.9
			C961.6,30.2,961,29.4,959.8,29z M956.6,28.1h-1.3v-3.3c0.3-0.1,0.8-0.1,1.5-0.1c1.7,0,2.5,0.7,2.5,1.8
			C959.3,27.6,958.1,28.1,956.6,28.1z"/>
		<path class="st1" d="M957.1,17c-6.7,0-12,5.2-12,11.6c0,6.6,5.3,11.8,12,11.8c6.7,0,11.9-5.2,11.9-11.8
			C969.1,22.1,963.9,17,957.1,17z M957.2,37.9c-5.2,0-9.1-4.1-9.1-9.3c0-5.1,3.8-9.3,9-9.3c5.2,0,8.9,4.2,8.9,9.4
			C966.1,33.8,962.3,37.9,957.2,37.9z"/>
	</g>
</g>
<path class="st1" d="M147.5,43.5l-19.1-27.7l6.3-4.3c0,0-14.5-2.5-16.5-2.9c-1.8-0.4-17.5,28-19,30.7c-10.8-4.6-22.4-3.7-24-3.5
	c-1.2,0-10.1,0-19.1,3.4c0,0-17-31-19-30.6c-1.9,0.4-16.5,2.9-16.5,2.9l6.3,4.3L7.8,43.5l4.6,2.5c0,0-5.3,18.6,1.6,18.9
	c6.9,0.3,8.8-3.3,8.8-3.3s-4.4-12.9-3.2-15.3c1.2-2.5,13-26.3,13-26.3L49.8,42c-4,2.4-7.7,5.7-10.2,10.2c-3,5.3-3.5,10.5-3.7,13.5
	C34.5,83.4,46,96.3,48.2,98.6c1.6,1.7,5.4,5.8,11.2,9.3l-5.1,2.1c-0.5,0.2-0.9,0.7-1,1.2c-0.3,1.8-0.6,4.6,0.3,7.8
	c0.4,1.3,1.7,5.6,5.7,8.5c4.1,2.9,9.6,3.5,10.5,2.2c0.9-1.4-1.5-4.5-3.6-5.7c-0.8-0.4-1.1-1.4-0.7-2.2c0.5-1,1-2,1.5-3
	c0.2-0.5,0.2-1,0-1.4c-0.2-0.5-0.4-0.9-0.6-1.3c-0.3-0.7-0.1-1.6,0.6-2.1c0,0,0,0,0,0c1.1-0.7,1.4-1.8,0.2-2.3
	c4,1.4,8.6,2.1,13.7,1.7c3-0.2,5.9-0.8,8.4-1.7c-1.2,0.5-0.9,1.5,0.2,2.3c0,0,0,0,0,0c0.7,0.5,0.9,1.3,0.6,2.1
	c-0.2,0.4-0.4,0.9-0.6,1.3c-0.2,0.5-0.2,1,0,1.4c0.5,1,1,2,1.5,3c0.4,0.8,0.1,1.8-0.7,2.2c-2.1,1.2-4.5,4.3-3.6,5.7
	c0.9,1.3,6.4,0.7,10.5-2.2c4.1-2.9,5.4-7.2,5.7-8.5c0.9-3.2,0.7-6.1,0.3-7.8c-0.1-0.6-0.5-1-1-1.2l-5.1-2.1
	c6.8-4.3,10.9-9.7,12.2-11.4c1.2-1.6,11.3-15.6,8-33.5c-0.6-3.1-1.6-8.5-5.3-13.7c-2.1-2.9-4.6-5.2-7.3-7.1l17.8-22.3
	c0,0,11.8,23.8,13,26.3c1.2,2.5-3.2,15.3-3.2,15.3s1.9,3.6,8.8,3.3c6.9-0.3,1.5-18.9,1.5-18.9L147.5,43.5z M67.2,83.1
	c-0.3,3.5-3.9,5.7-7.1,4.4c-4.6-1.8-9.1-5.2-11.6-9.7c-1.9-3.5-4.2-12.3,0.4-14.8c4.4-2.4,15.8,4.8,18,14.7
	C67.3,79.6,67.4,81.5,67.2,83.1 M105.1,63c4.6,2.6,2.2,11.5,0.3,15c-2.5,4.5-7,7.8-11.6,9.5c-3.1,1.2-6.6-0.8-6.9-4.1
	c-0.2-1.7-0.2-3.6,0.3-5.7C89.3,67.8,100.7,60.6,105.1,63"/>
</svg>
